<svg xmlns="http://www.w3.org/2000/svg" width="256" height="256" viewBox="0 0 100 100"><rect width="100" height="100" rx="20" fill="#f9a109"></rect><path d="M50.50 86L50.50 86Q43.30 86 37.70 84Q32.10 82 27 77.40L27 77.40Q25.90 76.60 25.35 75.45Q24.80 74.30 24.80 73.10L24.80 73.10Q24.80 71.20 26.20 69.70Q27.60 68.20 29.70 68.20L29.70 68.20Q31.30 68.20 32.70 69.30L32.70 69.30Q36.50 72.80 40.65 74.60Q44.80 76.40 50.40 76.40L50.40 76.40Q54.40 76.40 57.75 75.10Q61.10 73.80 63.10 71.60Q65.10 69.40 65.10 66.50L65.10 66.50Q65.10 62.90 63.05 60.55Q61 58.20 57.15 56.65Q53.30 55.10 47.90 54L47.90 54Q42.90 53.10 38.95 51.50Q35 49.90 32.20 47.45Q29.40 45 27.90 41.60Q26.40 38.20 26.40 33.70L26.40 33.70Q26.40 27.60 29.60 23.20Q32.80 18.80 38.30 16.40Q43.80 14 50.70 14L50.70 14Q57 14 62.50 15.95Q68 17.90 71.40 21.20L71.40 21.20Q73.80 23.30 73.80 25.70L73.80 25.70Q73.80 27.50 72.35 29.05Q70.90 30.60 69 30.60L69 30.60Q67.60 30.60 66.60 29.80L66.60 29.80Q65 28.10 62.30 26.75Q59.60 25.40 56.55 24.50Q53.50 23.60 50.70 23.60L50.70 23.60Q46.20 23.60 43 24.85Q39.80 26.10 38.10 28.25Q36.40 30.40 36.40 33.30L36.40 33.30Q36.40 36.70 38.35 38.90Q40.30 41.10 43.80 42.45Q47.30 43.80 51.80 44.90L51.80 44.90Q57.30 46.10 61.65 47.60Q66 49.10 69 51.45Q72 53.80 73.60 57.30Q75.20 60.80 75.20 66L75.20 66Q75.20 72 71.80 76.50Q68.40 81 62.85 83.50Q57.30 86 50.50 86Z" fill="#fff"></path></svg>